<svg xmlns="http://www.w3.org/2000/svg" xmlns:xlink="http://www.w3.org/1999/xlink" version="1.1" width="256" height="256" viewBox="0 0 256 256" xml:space="preserve">
<desc>Created with Fabric.js 1.7.22</desc>
<defs>
</defs>
<g transform="translate(128 128) scale(0.72 0.72)" style="">
	<g style="stroke: none; stroke-width: 0; stroke-dasharray: none; stroke-linecap: butt; stroke-linejoin: miter; stroke-miterlimit: 10; fill: none; fill-rule: nonzero; opacity: 1;" transform="translate(-175.05 -175.05000000000004) scale(3.89 3.89)" >
	<path d="M 45 52.679 c -1.657 0 -3.001 -1.343 -3.001 -3.001 V 20.617 c 0 -1.657 1.344 -3.001 3.001 -3.001 c 1.658 0 3.001 1.344 3.001 3.001 v 29.062 C 48.001 51.336 46.658 52.679 45 52.679 z" style="stroke: none; stroke-width: 1; stroke-dasharray: none; stroke-linecap: butt; stroke-linejoin: miter; stroke-miterlimit: 10; fill: rgb(0,0,0); fill-rule: nonzero; opacity: 1;" transform=" matrix(1 0 0 1 0 0) " stroke-linecap="round" />
	<path d="M 45 63.874 c -0.2 0 -0.39 -0.021 -0.59 -0.061 c -0.19 -0.04 -0.38 -0.1 -0.56 -0.17 c -0.18 -0.08 -0.35 -0.17 -0.52 -0.28 c -0.16 -0.109 -0.31 -0.239 -0.45 -0.369 c -0.56 -0.561 -0.88 -1.33 -0.88 -2.121 c 0 -0.801 0.32 -1.571 0.88 -2.121 c 0.14 -0.141 0.29 -0.271 0.45 -0.38 c 0.17 -0.11 0.34 -0.2 0.52 -0.271 c 0.18 -0.08 0.37 -0.14 0.56 -0.18 c 0.39 -0.07 0.79 -0.07 1.18 0 c 0.19 0.04 0.38 0.1 0.56 0.18 c 0.181 0.07 0.351 0.16 0.511 0.271 c 0.17 0.109 0.319 0.239 0.46 0.38 c 0.56 0.55 0.88 1.32 0.88 2.121 c 0 0.79 -0.32 1.56 -0.88 2.121 C 46.56 63.553 45.79 63.874 45 63.874 z" style="stroke: none; stroke-width: 1; stroke-dasharray: none; stroke-linecap: butt; stroke-linejoin: miter; stroke-miterlimit: 10; fill: rgb(0,0,0); fill-rule: nonzero; opacity: 1;" transform=" matrix(1 0 0 1 0 0) " stroke-linecap="round" />
	<path d="M 11.69 16.838 C 25.207 -1.53 51.147 -5.475 69.515 8.042 c 18.367 13.517 22.313 39.456 8.796 57.824 C 67.405 80.688 48.092 86.485 30.918 80.25 l -18.134 9.421 c -0.436 0.227 -0.91 0.338 -1.383 0.338 c -0.629 0 -1.254 -0.197 -1.779 -0.584 c -0.921 -0.678 -1.377 -1.82 -1.175 -2.946 l 3.603 -20.115 C 0.99 51.823 0.783 31.658 11.69 16.838 z M 45.045 6.008 c -10.869 0 -21.6 4.981 -28.523 14.387 l 0 0 c -9.561 12.992 -9.132 30.788 1.044 43.276 c 0.552 0.679 0.781 1.564 0.628 2.425 l -2.765 15.438 l 13.918 -7.23 c 0.776 -0.403 1.689 -0.449 2.501 -0.122 c 14.951 6.003 32.068 1.121 41.63 -11.872 c 11.555 -15.702 8.182 -37.878 -7.52 -49.434 C 59.661 8.241 52.322 6.008 45.045 6.008 z" style="stroke: none; stroke-width: 1; stroke-dasharray: none; stroke-linecap: butt; stroke-linejoin: miter; stroke-miterlimit: 10; fill: rgb(0,0,0); fill-rule: nonzero; opacity: 1;" transform=" matrix(1 0 0 1 0 0) " stroke-linecap="round" />
</g>
</g>
</svg>